<svg xmlns="http://www.w3.org/2000/svg" viewBox="0 0 355 270.73"><defs><style>.cls-1{fill:#76bc21;}.cls-2{fill:#fff;}</style></defs><g id="Layer_2" data-name="Layer 2"><g id="Layer_1-2" data-name="Layer 1"><circle class="cls-1" cx="195.6" cy="109.04" r="7.8"/><circle class="cls-1" cx="214.18" cy="109.04" r="7.8"/><circle class="cls-1" cx="237.94" cy="227.56" r="7.8"/><path class="cls-2" d="M121.67,100.27A11.05,11.05,0,0,1,111,108.51H52.1a11,11,0,0,1-10.68-8.24l-17-64.47H0V51H12.78l14,53.16A26.22,26.22,0,0,0,52.1,123.67H111a26.22,26.22,0,0,0,25.35-19.54l14-53.16h12.78V35.8H138.62Z"/><path class="cls-2" d="M81.54,7.22C98.89,7.22,113,20.07,113,35.87h7.22C120.23,16.09,102.88,0,81.54,0S42.86,16.09,42.86,35.87h7.22C50.08,20.07,64.19,7.22,81.54,7.22Z"/><path class="cls-2" d="M340.55,125.8v58.85a14.85,14.85,0,1,1-29.69,0V125.8H296.41v58.85a14.85,14.85,0,1,1-29.69,0V125.8H251.87v58.85a14.85,14.85,0,1,1-29.69,0V125.8H207.33v58.85a14.85,14.85,0,1,1-29.69,0V125.8H163.19v58.85a29.28,29.28,0,0,0,51.56,19,29.24,29.24,0,0,0,44.54,0,29.25,29.25,0,0,0,44.35.23A29.27,29.27,0,0,0,355,184.65V125.8Z"/><path class="cls-2" d="M200.76,242.52a9.88,9.88,0,0,0-9.86,9.86v18.35h4.86V252.38a5,5,0,0,1,10,0v18.35h4.86V252.38A9.87,9.87,0,0,0,200.76,242.52Z"/><path class="cls-2" d="M231,242.52h-8.68v0h-4.86v28.25h4.86v-8.49H231a9.86,9.86,0,1,0,0-19.72Zm0,14.86h-8.68v-10H231a5,5,0,1,1,0,10Z"/><polygon class="cls-2" points="258.03 242.48 253.17 242.48 253.17 242.52 244.32 242.52 244.32 247.38 253.17 247.38 253.17 270.73 258.03 270.73 258.03 247.38 266.87 247.38 266.87 242.52 258.03 242.52 258.03 242.48"/><path class="cls-2" d="M176.94,254h-5.37a3.51,3.51,0,1,1,0-7h13.49V242.4H171.57a8.13,8.13,0,0,0,0,16.25h5.37a3.51,3.51,0,1,1,0,7H163.31v4.62h13.63a8.13,8.13,0,1,0,0-16.25Z"/></g></g></svg>